<?xml version="1.0" standalone="no"?>
<!DOCTYPE svg PUBLIC "-//W3C//DTD SVG 20010904//EN"
 "http://www.w3.org/TR/2001/REC-SVG-20010904/DTD/svg10.dtd">
<svg version="1.0" xmlns="http://www.w3.org/2000/svg"
 width="640.000000pt" height="640.000000pt" viewBox="0 0 640.000000 640.000000"
 preserveAspectRatio="xMidYMid meet">
<metadata>
Created by potrace 1.11, written by Peter Selinger 2001-2013
</metadata>
<g transform="translate(0.000000,640.000000) scale(0.100000,-0.100000)"
fill="#000000" stroke="none">
<path d="M160 6229 c0 -5 5 -7 10 -4 6 3 10 8 10 11 0 2 -4 4 -10 4 -5 0 -10
-5 -10 -11z"/>
<path d="M6225 6230 c3 -5 8 -10 11 -10 2 0 4 5 4 10 0 6 -5 10 -11 10 -5 0
-7 -4 -4 -10z"/>
<path d="M160 2600 c-3 -107 -6 -702 -8 -1322 l-3 -1128 3050 0 3051 0 -1 688
c-1 378 -5 802 -9 942 l-6 255 -3 -265 c-1 -146 -4 -285 -7 -310 -3 -25 -8
-81 -12 -125 -5 -57 -11 -79 -20 -77 -7 1 -21 -2 -32 -8 -25 -13 -113 9 -106
27 3 7 -1 10 -9 7 -8 -3 -13 -11 -12 -17 1 -7 -8 -12 -20 -12 -11 0 -25 -3
-29 -8 -4 -4 -24 -7 -45 -7 -21 0 -41 -5 -44 -10 -5 -8 -11 -7 -20 0 -8 7 -19
9 -25 5 -5 -3 -10 -1 -10 5 0 6 -4 9 -9 5 -5 -3 -13 -1 -16 5 -5 8 -11 7 -21
-1 -11 -9 -15 -8 -20 4 -3 9 -12 13 -20 10 -8 -3 -11 -9 -8 -14 3 -5 -2 -9
-11 -9 -8 0 -18 7 -22 16 -4 11 -13 14 -32 9 -17 -4 -21 -3 -12 3 11 8 11 10
0 15 -8 4 6 4 31 1 69 -9 114 -7 118 4 2 6 13 5 29 -3 18 -10 32 -11 45 -4 27
15 22 18 -19 14 -32 -4 -34 -3 -13 4 14 5 48 10 75 10 28 1 57 6 65 11 17 11
9 13 -34 10 -18 -1 -26 2 -22 9 5 7 -12 11 -51 12 -32 0 -69 2 -83 5 -14 2
-40 5 -58 7 -28 2 -31 1 -16 -10 14 -10 14 -13 3 -18 -22 -7 -54 1 -54 13 0
13 -9 16 -28 9 -9 -4 -9 -8 2 -15 7 -5 9 -12 4 -15 -5 -3 -18 8 -28 24 -11 16
-26 29 -33 29 -7 0 -11 -4 -7 -10 3 -5 -7 -9 -22 -9 -15 0 -49 -1 -75 -4 -27
-2 -48 0 -48 5 0 5 -4 6 -10 3 -5 -3 -23 1 -40 10 -26 14 -30 14 -30 0 0 -11
-10 -14 -40 -12 -22 1 -40 5 -40 9 0 4 -7 5 -15 2 -9 -4 -15 0 -15 8 0 16 -62
38 -101 37 l-24 0 23 -10 c13 -5 28 -7 32 -4 5 3 11 1 14 -4 7 -11 -28 -21
-54 -14 -11 3 -20 13 -21 22 0 12 -2 11 -8 -4 l-8 -20 -5 20 c-5 16 -6 14 -7
-7 -1 -22 2 -26 16 -21 11 4 14 3 9 -5 -4 -7 -17 -10 -29 -8 -12 3 -30 5 -40
5 -11 1 -17 7 -15 18 2 11 -4 18 -17 20 l-20 3 20 -9 c19 -9 19 -10 -2 -10
-13 -1 -23 3 -23 9 0 5 -7 7 -15 4 -8 -4 -23 0 -32 7 -10 9 -49 15 -102 17
-141 6 -171 3 -171 -15 0 -12 20 -17 58 -16 13 1 17 -16 5 -18 -5 0 -19 -2
-33 -3 -14 -2 -29 -5 -35 -7 -13 -5 -75 23 -75 34 0 5 10 5 23 2 20 -6 19 -4
-7 19 -16 14 -36 26 -45 25 -10 0 -7 -4 7 -10 13 -5 20 -13 17 -19 -4 -6 -11
-7 -18 -3 -10 6 -32 7 -82 4 -8 -1 -15 -7 -15 -15 0 -18 -20 -25 -45 -15 -20
8 -7 14 23 10 6 -1 12 3 12 9 0 18 -68 12 -80 -7 -9 -17 -11 -17 -20 -2 -7 13
-18 15 -42 10 -37 -8 -68 -4 -68 9 0 5 14 10 32 12 17 2 33 8 35 13 2 6 -28 9
-79 8 -46 -2 -131 -4 -190 -6 -67 -1 -109 1 -112 8 -2 6 -8 6 -16 -2 -9 -8
-19 -9 -32 -2 -10 5 -18 6 -18 1 0 -13 -74 -12 -82 1 -10 17 -118 16 -118 0 0
-7 -4 -13 -10 -13 -5 0 -10 6 -11 13 0 6 -4 3 -9 -8 -7 -16 -9 -17 -9 -3 -1
18 -34 33 -50 23 -6 -3 -14 3 -20 12 -6 11 -11 13 -11 5 0 -10 -4 -9 -16 2 -8
9 -20 13 -26 10 -6 -4 -14 -1 -18 6 -4 7 -29 12 -56 12 -50 1 -78 13 -68 29 9
16 24 10 17 -8 -4 -11 -3 -14 5 -9 7 4 31 9 54 12 23 3 47 9 53 14 6 5 16 5
23 1 16 -10 62 -2 62 10 0 10 45 5 84 -10 16 -7 31 -9 34 -6 3 3 0 5 -6 5 -7
0 -12 7 -12 15 0 15 16 20 55 16 11 -1 49 -2 84 -1 58 1 63 0 51 -15 -7 -8
-10 -18 -7 -21 9 -9 27 6 27 22 0 8 5 12 10 9 6 -4 8 -16 5 -28 -5 -20 -5 -20
8 -5 9 11 18 14 28 7 8 -5 17 -9 21 -9 13 0 2 41 -13 51 -11 7 -9 9 8 9 12 0
25 5 28 10 10 16 85 -3 85 -21 0 -6 -8 -5 -19 1 -33 17 -35 11 -6 -12 27 -21
28 -21 41 -3 16 22 18 35 4 35 -5 0 -10 4 -10 10 0 5 7 7 16 3 11 -4 23 1 32
13 10 13 16 15 19 7 3 -7 14 -13 25 -13 18 0 19 2 7 17 -13 15 -12 16 8 11 13
-4 26 -2 29 3 3 5 -10 9 -29 9 -41 0 -57 24 -26 41 11 6 18 13 16 16 -3 2 -17
-3 -32 -13 -23 -15 -31 -16 -59 -5 -17 7 -50 14 -74 14 -36 2 -40 0 -25 -10
15 -12 15 -13 -4 -13 -11 0 -27 8 -34 17 -10 11 -10 14 -1 9 6 -4 12 -2 12 3
0 6 -7 11 -15 11 -24 0 -75 42 -75 60 0 13 -6 16 -25 12 -32 -6 -32 6 -1 18
19 7 34 4 65 -13 22 -12 42 -30 44 -39 4 -12 11 -15 28 -10 24 7 24 7 2 10
-20 3 -34 23 -32 47 0 5 -9 13 -21 17 -11 4 -20 13 -19 20 3 27 -2 38 -16 38
-8 0 -15 -4 -15 -10 0 -5 8 -10 18 -10 15 -1 15 -2 -2 -11 -14 -9 -20 -8 -26
1 -6 9 -13 9 -28 1 -31 -17 -34 -14 -15 15 17 27 17 27 -4 15 -12 -6 -48 -11
-80 -11 l-58 0 46 45 c26 24 45 46 42 49 -3 2 4 11 16 18 12 7 21 20 21 28 0
8 16 39 35 67 44 66 44 76 0 33 -19 -18 -52 -42 -72 -52 -21 -9 -32 -17 -25
-18 18 0 -32 -90 -91 -165 -52 -66 -67 -74 -67 -35 0 29 5 36 45 65 17 13 18
14 2 9 -34 -12 19 76 54 89 33 13 40 32 9 24 -11 -3 -20 -1 -20 5 0 5 -5 6
-11 2 -7 -4 -10 -1 -7 7 3 8 10 14 15 14 6 0 15 4 20 9 4 5 3 6 -3 3 -12 -7
-28 48 -18 64 11 18 25 9 15 -10 -8 -14 -7 -20 4 -24 9 -4 12 -1 8 9 -3 8 3
24 13 36 17 20 18 21 1 15 -15 -5 -16 -2 -11 21 4 16 3 23 -2 19 -5 -5 -10
-13 -10 -18 -1 -5 -2 -13 -3 -19 0 -5 -5 -10 -11 -10 -6 0 -6 9 0 25 10 25
-10 92 -23 79 -3 -4 -2 -15 4 -26 11 -20 -5 -53 -21 -43 -4 2 -5 -7 -2 -20 3
-17 0 -25 -10 -25 -23 0 -28 11 -16 34 6 11 11 38 9 58 -1 20 3 39 9 43 5 3
10 12 10 18 0 7 -6 3 -12 -8 -11 -18 -13 -16 -29 20 -10 22 -17 31 -16 20 2
-11 6 -25 9 -31 13 -19 21 -93 13 -111 -5 -10 -9 -36 -9 -58 -1 -46 -16 -58
-32 -26 -19 37 -23 34 -13 -10 12 -51 5 -77 -15 -60 -11 9 -12 6 -9 -13 4 -18
-1 -27 -19 -37 -34 -18 -61 -49 -135 -157 -36 -53 -74 -108 -85 -121 l-18 -24
6 34 c4 19 18 56 30 83 13 28 24 57 24 65 0 9 12 52 26 96 23 72 29 94 37 145
2 9 7 21 11 29 5 7 3 18 -3 24 -8 8 -11 5 -11 -11 0 -12 -5 -22 -11 -22 -5 0
-8 -4 -4 -9 3 -5 1 -12 -5 -16 -5 -3 -10 -13 -10 -22 0 -8 -9 -28 -21 -45 -12
-16 -19 -32 -16 -34 3 -3 12 7 21 23 24 45 18 9 -16 -95 -21 -64 -34 -89 -36
-74 -2 13 4 44 12 69 18 52 20 77 7 69 -18 -12 28 130 47 144 10 7 42 58 42
66 0 4 -9 -4 -21 -17 -12 -13 -26 -23 -31 -21 -5 1 -7 -2 -4 -7 7 -11 -33
-105 -42 -97 -10 11 -3 139 9 146 8 6 8 9 0 14 -6 4 -11 19 -11 33 0 46 -11
18 -12 -30 0 -29 -4 -44 -11 -40 -6 4 -7 1 -2 -7 11 -17 15 -111 5 -105 -4 3
-25 32 -46 65 -22 33 -43 60 -48 60 -5 0 -1 -9 9 -20 15 -16 16 -22 5 -35 -11
-13 -10 -14 3 -10 10 4 27 -9 51 -40 34 -45 37 -57 27 -114 -1 -2 -11 9 -23
25 -12 16 -24 32 -28 37 -3 4 -5 -7 -4 -24 2 -34 14 -53 14 -23 1 19 1 19 15
0 22 -29 18 -66 -11 -131 -24 -53 -28 -56 -40 -40 -12 15 -12 13 -7 -18 4 -27
0 -43 -16 -65 -11 -17 -21 -34 -21 -39 0 -5 -7 -19 -16 -31 l-16 -23 -15 22
c-13 18 -15 43 -10 148 3 69 2 144 -2 166 -5 22 -9 32 -10 21 -1 -16 -3 -17
-18 -5 -17 13 -17 12 -2 -6 20 -25 32 -85 23 -120 -6 -25 -7 -24 -29 22 -13
26 -24 42 -24 35 -1 -7 5 -25 13 -40 23 -46 30 -93 15 -103 -29 -18 -39 -9
-39 33 0 37 -36 135 -46 125 -2 -2 4 -19 13 -38 9 -18 18 -58 21 -89 l3 -55
-21 25 c-49 59 -93 134 -94 161 -1 38 -22 46 -22 8 0 -16 4 -29 9 -29 6 0 8
-3 4 -6 -3 -3 10 -26 29 -51 19 -25 32 -48 29 -51 -2 -3 4 -11 15 -19 29 -20
25 -29 -14 -31 -35 -3 -54 16 -71 68 -7 23 -7 24 11 10 16 -14 16 -13 -1 12
-11 15 -24 26 -30 24 -5 -2 -25 10 -42 27 -18 17 -33 27 -33 21 0 -13 49 -64
62 -64 6 0 8 -3 5 -7 -4 -3 -1 -13 6 -21 10 -13 8 -14 -13 -9 -31 7 -80 -16
-59 -28 7 -5 14 -4 17 3 6 20 47 13 70 -11 12 -13 19 -27 15 -30 -3 -4 1 -7
10 -7 10 0 17 -5 17 -11 0 -6 -7 -8 -16 -5 -9 3 -25 6 -37 7 -21 0 -21 1 -3 8
18 7 18 8 2 14 -10 4 -14 12 -10 18 5 8 3 9 -5 4 -7 -4 -36 -9 -64 -11 -49 -3
-51 -2 -32 13 l20 16 -20 -8 c-11 -5 -32 -9 -46 -9 -28 -1 -36 -26 -8 -26 18
0 35 -17 26 -26 -9 -10 -57 9 -57 22 0 10 -6 11 -25 4 -15 -6 -26 -6 -30 0 -4
6 -13 10 -21 10 -14 0 -14 -2 0 -15 10 -10 24 -13 40 -9 21 5 24 3 19 -14 -4
-16 -11 -20 -32 -17 -14 2 -44 7 -67 10 -30 5 -44 2 -53 -9 -7 -8 -19 -12 -27
-9 -10 4 -13 0 -8 -13 4 -14 3 -16 -4 -5 -6 8 -17 11 -32 6 l-22 -7 24 -16
c12 -9 32 -25 43 -35 20 -19 20 -19 -15 -13 l-35 6 28 -13 c16 -8 33 -20 38
-28 6 -10 9 -10 9 -1 0 6 11 12 25 12 31 0 31 -6 3 -31 l-23 -20 25 7 c27 7
28 7 49 5 11 -1 11 -4 1 -16 -7 -8 -16 -12 -21 -9 -5 3 -6 -2 -3 -10 3 -9 2
-16 -4 -16 -6 0 -13 6 -15 13 -4 7 -6 6 -6 -5 -1 -11 -7 -15 -22 -11 -16 4
-17 8 -7 14 10 7 10 9 0 9 -7 0 -15 -6 -18 -13 -3 -9 -19 -12 -49 -10 -39 3
-44 1 -39 -14 5 -16 4 -16 -5 -2 -11 17 -69 23 -86 9 -6 -5 -16 -5 -24 -1 -7
4 -30 5 -51 1 -26 -5 -41 -3 -44 4 -3 7 -12 2 -24 -11 -13 -15 -26 -20 -41
-16 -11 3 -18 9 -15 14 3 5 -2 9 -10 9 -9 0 -16 -6 -17 -12 0 -7 -4 -4 -9 7
-7 17 -9 17 -9 3 -1 -10 -8 -18 -17 -18 -8 0 -12 5 -9 10 3 6 2 10 -4 10 -5 0
-13 -5 -16 -11 -4 -6 -14 -8 -22 -5 -11 5 -13 1 -8 -15 6 -18 4 -20 -14 -14
-14 4 -23 1 -27 -8 -3 -8 -13 -14 -22 -12 -9 1 -20 -3 -24 -9 -5 -7 -13 -5
-25 5 -16 14 -24 15 -50 10 -5 -1 -1 -5 7 -11 8 -5 12 -12 8 -15 -3 -3 -13 2
-23 11 -15 15 -18 16 -25 3 -5 -9 -26 -16 -52 -17 -24 -1 -55 -5 -71 -8 -19
-4 -29 -1 -33 10 -3 9 -10 13 -16 10 -19 -12 -68 -15 -68 -5 0 6 9 11 21 11
11 0 18 4 14 9 -3 5 -1 12 4 16 5 3 9 14 8 25 -1 18 -2 18 -19 3 -11 -10 -18
-12 -18 -5 0 7 -4 12 -10 12 -5 0 -10 -7 -10 -15 0 -9 -9 -15 -25 -15 -16 0
-25 6 -25 16 0 8 -4 12 -10 9 -5 -3 -10 0 -10 7 0 9 -3 9 -10 -2 -9 -13 -10
-13 -10 0 -1 8 -6 4 -11 -9 -5 -14 -7 -31 -4 -38 2 -8 0 -11 -5 -8 -6 3 -10
15 -10 25 0 26 -17 34 -28 14 -12 -21 -52 -10 -52 14 0 10 -3 13 -8 7 -9 -14
-65 -18 -57 -5 9 15 -2 12 -19 -6 -14 -13 -16 -14 -16 0 0 16 -25 15 -59 -3
-13 -7 -22 -8 -26 -1 -8 13 -45 13 -45 -1 0 -14 -25 -39 -39 -39 -6 0 -10 5
-8 12 1 6 -7 14 -17 16 -14 3 -17 0 -13 -12 5 -12 0 -16 -19 -16 -14 0 -22 -4
-19 -10 3 -5 2 -10 -4 -10 -5 0 -14 6 -18 13 -4 6 -18 18 -30 25 -21 11 -23
10 -20 -10 2 -21 -2 -23 -48 -24 -27 -1 -58 -4 -67 -9 -10 -4 -26 -4 -35 0
-17 7 -17 8 1 14 16 6 12 10 -22 18 -23 6 -42 7 -44 2 -2 -5 -16 -5 -33 0 -17
4 -40 4 -53 0 -17 -6 -22 -5 -22 8 0 12 -3 13 -13 4 -10 -8 -17 -7 -25 1 -9 9
-12 8 -12 -5 0 -19 45 -41 66 -33 8 3 18 -3 24 -12 8 -12 10 -12 7 -2 -5 18
44 24 55 7 6 -9 8 -9 8 1 0 6 10 11 23 11 16 -1 18 -2 5 -6 -10 -2 -18 -8 -18
-12 0 -4 8 -8 18 -8 48 1 73 -4 67 -13 -3 -5 -12 -7 -20 -3 -9 3 -15 -1 -15
-8 0 -11 -3 -11 -10 1 -6 10 -10 11 -10 3 0 -7 -9 -13 -21 -13 -13 0 -18 4
-13 13 6 9 5 9 -8 0 -8 -7 -18 -10 -22 -6 -3 4 -29 8 -57 9 -42 2 -48 0 -38
-13 7 -8 20 -12 30 -10 12 3 15 -1 12 -17 -3 -12 -1 -17 4 -11 4 6 24 11 43
12 31 2 32 1 15 -9 -11 -6 -22 -14 -25 -18 -9 -12 -50 -19 -50 -8 0 13 -43 6
-55 -10 -9 -11 -15 -9 -33 6 -12 11 -22 22 -22 25 0 3 23 5 50 3 28 -1 50 1
50 6 0 4 -8 8 -18 8 -10 0 -23 5 -29 11 -7 7 -19 8 -30 4 -10 -5 -22 -7 -26
-6 -4 0 -10 -6 -13 -14 -7 -17 -34 -21 -34 -4 0 5 5 7 10 4 6 -3 10 4 10 16 0
18 -3 20 -12 11 -7 -7 -25 -12 -40 -12 -15 0 -28 -4 -28 -10 0 -5 12 -10 26
-10 14 0 22 -4 19 -10 -3 -5 -16 -8 -28 -6 -12 3 -28 5 -36 5 -10 1 -11 4 -3
14 20 23 -18 33 -106 27 -84 -5 -107 0 -76 18 16 9 15 10 -3 16 -24 8 -21 -53
-31 751 -5 431 -9 561 -12 425z m3495 -460 c-10 -11 -13 -20 -7 -20 17 0 15
-56 -3 -74 -8 -8 -19 -26 -25 -41 -5 -14 -14 -23 -20 -20 -18 11 -10 44 15 61
24 15 37 43 14 28 -8 -4 -8 0 0 15 7 12 10 25 7 30 -6 10 24 54 32 47 3 -3 -3
-15 -13 -26z m155 -94 c0 -2 -8 -10 -17 -17 -16 -13 -17 -12 -4 4 13 16 21 21
21 13z m-160 -30 c0 -3 -4 -8 -10 -11 -5 -3 -10 -1 -10 4 0 6 5 11 10 11 6 0
10 -2 10 -4z m-70 -52 c0 -8 -3 -13 -7 -12 -5 1 -27 -8 -51 -21 -63 -33 -71
-21 -17 28 37 34 49 40 61 31 8 -7 14 -19 14 -26z m182 14 c-7 -7 -12 -8 -12
-2 0 14 12 26 19 19 2 -3 -1 -11 -7 -17z m-194 -55 c-24 -49 -33 -63 -40 -63
-5 0 -6 9 -3 20 3 11 2 20 -4 20 -5 0 -11 -10 -13 -22 -2 -13 -8 -22 -14 -21
-7 1 -11 -10 -11 -24 0 -25 0 -26 13 -8 14 19 20 9 6 -11 -10 -15 -45 -27 -36
-13 4 7 1 10 -7 7 -8 -3 -13 -14 -12 -26 2 -13 -6 -23 -25 -31 -36 -15 -72
-21 -72 -13 0 4 22 37 49 73 42 56 100 102 133 104 3 0 10 3 14 8 4 4 11 7 17
7 5 0 7 -3 5 -7z m-309 -87 c-9 -8 -10 -7 -5 7 3 10 7 24 7 30 1 7 3 4 6 -7 3
-10 -1 -23 -8 -30z m543 32 c-10 -10 -121 -30 -130 -23 -1 1 0 10 4 19 5 13
20 16 72 16 51 0 63 -3 54 -12z m13 -37 c-3 -6 -11 -11 -17 -11 -6 0 -6 6 2
15 14 17 26 13 15 -4z m-275 -20 c-6 -12 -15 -21 -21 -21 -5 0 -2 11 8 24 21
28 29 27 13 -3z m233 12 c-3 -10 -20 -33 -36 -50 -22 -24 -34 -30 -43 -22 -8
7 -14 7 -19 -1 -3 -5 -1 -10 5 -10 6 0 8 -4 5 -10 -3 -5 -15 -10 -26 -10 -10
0 -19 5 -19 10 0 6 -12 10 -27 11 -25 0 -26 1 -8 9 12 5 14 9 6 9 -11 1 -10 6
4 21 15 16 21 18 33 8 13 -11 14 -9 8 10 -6 18 -3 22 16 24 42 2 47 3 54 11 4
4 18 7 30 7 18 0 22 -4 17 -17z m-533 -75 c-19 -85 -20 -88 -43 -89 -21 0 -21
-1 -2 -9 11 -5 14 -9 8 -9 -7 -1 -13 -8 -13 -16 0 -8 -4 -15 -10 -15 -19 0
-10 45 27 122 20 43 38 76 41 74 2 -3 -1 -29 -8 -58z m587 45 c10 -13 16 -15
19 -5 8 17 24 4 17 -14 -3 -8 -1 -14 5 -12 19 5 71 -35 69 -54 -1 -21 -27 -24
-46 -5 -7 6 -11 8 -9 2 3 -11 -4 -15 -28 -15 -8 0 -12 4 -9 10 3 5 0 7 -9 4
-21 -8 -56 14 -50 31 4 11 2 13 -9 9 -8 -3 -18 -1 -22 5 -10 17 23 25 51 13
15 -7 24 -8 24 -2 0 6 -7 10 -16 10 -8 0 -12 5 -9 10 3 6 1 10 -5 10 -6 0 -8
5 -5 10 9 14 16 13 32 -7z m-746 -56 c-8 -8 -11 -7 -11 2 0 7 -4 9 -10 6 -5
-3 -10 1 -10 9 0 8 8 19 18 25 13 8 18 6 20 -11 2 -11 -1 -25 -7 -31z m-76 13
c10 -11 15 -21 12 -21 -26 -5 -34 -4 -49 9 -10 8 -18 19 -18 24 0 16 37 8 55
-12z m-445 -20 c12 -8 9 -10 -12 -10 -16 0 -28 5 -28 10 0 13 20 13 40 0z
m349 6 c-12 -10 -60 -16 -54 -6 3 5 18 10 32 10 15 0 24 -2 22 -4z m36 -14
c-3 -3 -11 0 -18 7 -9 10 -8 11 6 5 10 -3 15 -9 12 -12z m125 -39 c0 -5 -61 7
-74 15 -5 3 -1 9 10 12 17 6 64 -14 64 -27z m670 27 c0 -5 -5 -10 -11 -10 -5
0 -7 5 -4 10 3 6 8 10 11 10 2 0 4 -4 4 -10z m-1170 -10 c0 -5 -5 -10 -11 -10
-5 0 -7 5 -4 10 3 6 8 10 11 10 2 0 4 -4 4 -10z m375 0 c-3 -5 -12 -10 -18
-10 -7 0 -6 4 3 10 19 12 23 12 15 0z m1140 0 c3 -6 -1 -7 -9 -4 -18 7 -21 14
-7 14 6 0 13 -4 16 -10z m-725 -30 c0 -6 -8 -10 -17 -8 -10 2 -17 -3 -15 -9 1
-7 -5 -13 -15 -13 -14 0 -14 2 2 20 19 21 45 27 45 10z m330 0 c0 -5 -4 -10
-10 -10 -5 0 -10 5 -10 10 0 6 5 10 10 10 6 0 10 -4 10 -10z m-708 -22 c-5 -5
-20 -8 -33 -6 l-24 5 25 10 c28 12 47 6 32 -9z m998 -8 c0 -5 -5 -10 -11 -10
-5 0 -7 5 -4 10 3 6 8 10 11 10 2 0 4 -4 4 -10z m-940 -35 c0 -25 -31 -42 -51
-29 -8 4 -9 3 -5 -4 4 -7 3 -12 -3 -12 -19 0 -22 20 -7 42 9 12 16 17 16 10 0
-6 5 -12 11 -12 6 0 9 6 6 14 -7 18 1 26 19 19 8 -3 14 -16 14 -28z m555 25
c4 -7 -3 -8 -22 -4 -38 9 -42 14 -10 14 14 0 29 -5 32 -10z m145 -10 c0 -5
-11 -10 -25 -10 -14 0 -25 5 -25 10 0 6 11 10 25 10 14 0 25 -4 25 -10z m95 0
c3 -5 2 -10 -4 -10 -5 0 -13 5 -16 10 -3 6 -2 10 4 10 5 0 13 -4 16 -10z m60
-8 c-3 -3 -11 0 -18 7 -9 10 -8 11 6 5 10 -3 15 -9 12 -12z m-1020 -20 c-3 -3
-11 0 -18 7 -9 10 -8 11 6 5 10 -3 15 -9 12 -12z m638 11 c-7 -2 -19 -2 -25 0
-7 3 -2 5 12 5 14 0 19 -2 13 -5z m-430 -20 c-7 -2 -19 -2 -25 0 -7 3 -2 5 12
5 14 0 19 -2 13 -5z m387 -3 c0 -5 -4 -10 -10 -10 -5 0 -8 -6 -6 -12 1 -7 1
-10 -1 -5 -3 4 -8 5 -13 2 -4 -3 -6 4 -3 15 5 20 33 29 33 10z m-754 -44 c3
-19 1 -24 -9 -20 -9 3 -12 14 -9 30 5 29 11 26 18 -10z m137 17 c11 -11 -14
-32 -30 -26 -9 4 -14 2 -11 -3 3 -5 0 -15 -7 -21 -11 -10 -13 -9 -12 7 1 11 5
20 10 20 4 0 5 4 2 10 -3 6 1 7 9 4 9 -3 16 -1 16 5 0 12 13 15 23 4z m-172
-11 c-6 -2 -9 -7 -6 -11 2 -4 -13 -8 -34 -8 -25 0 -38 4 -35 11 2 6 23 11 45
11 22 0 36 -1 30 -3z m369 2 c0 -8 -19 -13 -24 -6 -3 5 1 9 9 9 8 0 15 -2 15
-3z m-280 -24 c0 -5 -4 -10 -9 -10 -6 0 -13 5 -16 10 -3 6 1 10 9 10 9 0 16
-4 16 -10z m-493 -16 c-3 -3 -12 -4 -19 -1 -8 3 -5 6 6 6 11 1 17 -2 13 -5z
m-191 -24 c13 0 24 -4 24 -8 0 -7 -22 -8 -67 -3 -7 0 -13 6 -13 12 0 6 7 8 16
5 9 -3 27 -6 40 -6z m1384 0 c0 -5 -7 -10 -15 -10 -8 0 -15 5 -15 10 0 6 7 10
15 10 8 0 15 -4 15 -10z m-983 -6 c-3 -3 -12 -4 -19 -1 -8 3 -5 6 6 6 11 1 17
-2 13 -5z m1023 -4 c0 -5 -4 -10 -10 -10 -5 0 -10 5 -10 10 0 6 5 10 10 10 6
0 10 -4 10 -10z m-1990 -14 c0 -3 -4 -8 -10 -11 -5 -3 -10 -1 -10 4 0 6 5 11
10 11 6 0 10 -2 10 -4z m2228 -13 c-10 -2 -26 -2 -35 0 -10 3 -2 5 17 5 19 0
27 -2 18 -5z m-2233 -23 c3 -5 -3 -10 -14 -10 -12 0 -21 5 -21 10 0 6 6 10 14
10 8 0 18 -4 21 -10z m-65 -10 c-8 -5 -19 -10 -25 -10 -5 0 -3 5 5 10 8 5 20
10 25 10 6 0 3 -5 -5 -10z m1947 4 c-3 -3 -12 -4 -19 -1 -8 3 -5 6 6 6 11 1
17 -2 13 -5z m303 -13 c0 -10 -99 -21 -186 -21 -45 0 -64 4 -64 13 0 8 -4 7
-10 -3 -5 -8 -10 -10 -10 -4 0 6 2 13 4 15 9 8 266 8 266 0z m-1992 -11 c-25
-5 -79 -5 -120 0 -69 7 -66 7 47 7 91 1 109 -1 73 -7z m2592 -6 c0 -2 -7 -4
-15 -4 -8 0 -15 4 -15 10 0 5 7 7 15 4 8 -4 15 -8 15 -10z m571 -4 c-6 -3 -26
-4 -44 -1 -31 4 -31 5 -7 11 30 8 67 1 51 -10z m-4514 -34 c-9 -9 -20 -16 -26
-16 -5 0 -12 -8 -15 -17 -3 -10 -4 -6 -2 10 2 15 -1 30 -5 33 -5 3 -9 -4 -9
-15 0 -12 -4 -21 -9 -21 -5 0 -7 -8 -4 -19 3 -14 -2 -20 -21 -23 -19 -4 -26
-1 -26 10 0 12 -3 12 -15 2 -32 -27 -26 -28 140 -21 50 2 64 5 50 11 -17 7
-16 9 10 10 29 1 29 2 7 11 -13 5 -28 7 -33 3 -5 -3 -9 0 -9 5 0 14 77 14 85
1 3 -5 19 -10 36 -10 16 0 29 -4 29 -9 0 -5 -16 -8 -36 -6 -23 1 -37 -2 -41
-11 -3 -8 -19 -14 -35 -14 -22 0 -29 -4 -25 -14 7 -17 -23 -22 -134 -25 -44
-1 -80 2 -83 8 -8 12 11 48 39 74 20 18 20 19 -2 14 -29 -6 -38 7 -18 26 11
12 12 17 2 20 -7 3 -5 6 5 6 9 1 24 -6 32 -15 15 -14 16 -14 16 2 0 14 7 16
51 10 40 -6 49 -4 43 6 -5 10 -4 10 6 1 10 -9 10 -15 -3 -27z m4186 27 c-7 -2
-19 -2 -25 0 -7 3 -2 5 12 5 14 0 19 -2 13 -5z m487 -13 c26 -26 26 -27 -11
-22 -22 3 -27 7 -18 13 11 7 10 9 -3 9 -9 0 -20 5 -23 10 -11 19 35 10 55 -10z
m600 -30 c0 -5 -4 -10 -10 -10 -5 0 -10 5 -10 10 0 6 5 10 10 10 6 0 10 -4 10
-10z m-5265 -20 c3 -5 -3 -10 -15 -10 -12 0 -18 5 -15 10 3 6 10 10 15 10 5 0
12 -4 15 -10z m5080 -7 c12 1 20 -5 23 -18 3 -19 2 -19 -12 -2 -9 12 -15 14
-18 6 -3 -8 -14 -10 -32 -5 -27 7 -27 8 -10 21 10 7 21 10 24 5 3 -5 14 -8 25
-7z m-4158 -8 c0 -8 -4 -15 -9 -15 -4 0 -8 7 -8 15 0 8 4 15 8 15 5 0 9 -7 9
-15z m-27 -3 c0 -5 -17 -9 -37 -10 -28 -1 -34 1 -23 8 19 12 60 13 60 2z m87
2 c-3 -3 -12 -4 -19 -1 -8 3 -5 6 6 6 11 1 17 -2 13 -5z m-170 -10 c-3 -3 -12
-4 -19 -1 -8 3 -5 6 6 6 11 1 17 -2 13 -5z m3938 -13 c-3 -6 -11 -11 -16 -11
-5 0 -4 6 3 14 14 16 24 13 13 -3z m-4605 -11 c0 -5 -5 -10 -11 -10 -5 0 -7 5
-4 10 3 6 8 10 11 10 2 0 4 -4 4 -10z m333 3 c-7 -2 -19 -2 -25 0 -7 3 -2 5
12 5 14 0 19 -2 13 -5z m4350 0 c-7 -2 -19 -2 -25 0 -7 3 -2 5 12 5 14 0 19
-2 13 -5z m934 -40 c3 -7 -12 -11 -46 -10 -53 2 -68 12 -28 20 36 7 70 3 74
-10z m53 3 c0 -3 -4 -8 -10 -11 -5 -3 -10 -1 -10 4 0 6 5 11 10 11 6 0 10 -2
10 -4z m-5910 -41 c0 -9 -6 -12 -16 -8 -13 5 -13 7 -2 14 17 11 18 11 18 -6z
m457 9 c-3 -3 -12 -4 -19 -1 -8 3 -5 6 6 6 11 1 17 -2 13 -5z m40 0 c-3 -3
-12 -4 -19 -1 -8 3 -5 6 6 6 11 1 17 -2 13 -5z m-540 -10 c-3 -3 -12 -4 -19
-1 -8 3 -5 6 6 6 11 1 17 -2 13 -5z m5603 -18 c0 -3 -4 -8 -10 -11 -5 -3 -10
-1 -10 4 0 6 5 11 10 11 6 0 10 -2 10 -4z m235 -6 c3 -5 -1 -10 -10 -10 -9 0
-13 5 -10 10 3 6 8 10 10 10 2 0 7 -4 10 -10z m65 0 c0 -5 -5 -10 -11 -10 -7
0 -9 -10 -5 -27 5 -21 4 -24 -4 -13 -15 23 -12 60 5 60 8 0 15 -4 15 -10z m52
-6 c-20 -9 -32 -20 -29 -28 3 -7 0 -13 -7 -13 -7 0 -11 11 -8 27 3 22 9 26 40
27 l37 2 -33 -15z m-5958 -9 c-4 -8 -8 -15 -10 -15 -2 0 -4 7 -4 15 0 8 4 15
10 15 5 0 7 -7 4 -15z m5752 4 c-22 -5 -43 -6 -48 -1 -5 5 13 9 39 9 l48 1
-39 -9z m59 -9 c3 -5 -1 -10 -10 -10 -9 0 -13 5 -10 10 3 6 8 10 10 10 2 0 7
-4 10 -10z m142 -22 c-3 -8 -6 -5 -6 6 -1 11 2 17 5 13 3 -3 4 -12 1 -19z
m-5858 -2 c-11 -9 -119 -15 -119 -6 0 6 27 10 62 10 34 0 59 -2 57 -4z m5871
-38 c-15 -6 -27 -5 -34 3 -7 8 -7 10 -1 6 6 -3 17 -2 25 3 8 5 18 6 24 3 5 -4
-1 -10 -14 -15z m-5874 -86 c-10 -2 -22 0 -28 6 -6 6 0 7 19 4 21 -5 23 -7 9
-10z m3141 -78 c-3 -3 -12 -4 -19 -1 -8 3 -5 6 6 6 11 1 17 -2 13 -5z m122
-10 c2 -2 -17 -4 -42 -4 -26 0 -47 5 -47 10 0 9 78 4 89 -6z m-186 -1 c-7 -2
-19 -2 -25 0 -7 3 -2 5 12 5 14 0 19 -2 13 -5z m-2883 -13 c8 -5 11 -10 5 -10
-5 0 -17 5 -25 10 -8 5 -10 10 -5 10 6 0 17 -5 25 -10z m-260 -10 c0 -5 -9
-10 -21 -10 -11 0 -17 5 -14 10 3 6 13 10 21 10 8 0 14 -4 14 -10z m381 -8
c-13 -2 -27 0 -32 5 -6 6 3 7 23 4 28 -4 29 -6 9 -9z m-351 -5 c0 -18 68 -38
100 -30 21 5 23 3 13 -8 -16 -16 -75 -21 -84 -7 -4 6 -15 8 -25 3 -28 -12 -94
-15 -94 -4 0 5 12 9 26 9 15 0 23 4 18 11 -3 6 -15 9 -25 6 -11 -3 -17 -1 -13
4 3 5 18 9 35 9 16 0 29 5 29 10 0 6 5 10 10 10 6 0 10 -6 10 -13z m103 6 c-7
-2 -21 -2 -30 0 -10 3 -4 5 12 5 17 0 24 -2 18 -5z m310 0 c-7 -2 -19 -2 -25
0 -7 3 -2 5 12 5 14 0 19 -2 13 -5z m-243 -53 c0 -5 -12 -10 -26 -10 -14 0
-23 4 -19 10 3 6 15 10 26 10 10 0 19 -4 19 -10z m-185 -250 c3 -6 -1 -7 -9
-4 -18 7 -21 14 -7 14 6 0 13 -4 16 -10z"/>
<path d="M3715 2283 c2 -16 -2 -34 -9 -42 -9 -11 -8 -13 4 -9 15 5 24 78 9 78
-4 0 -6 -12 -4 -27z"/>
<path d="M3415 2240 c-3 -5 -1 -10 4 -10 6 0 11 5 11 10 0 6 -2 10 -4 10 -3 0
-8 -4 -11 -10z"/>
<path d="M3894 2219 c-4 -7 -3 -9 4 -5 5 3 13 0 15 -6 4 -9 6 -10 6 -1 1 17
-16 25 -25 12z"/>
<path d="M3845 2182 c-11 -9 -26 -30 -33 -45 -17 -40 -14 -48 5 -12 8 17 25
40 36 53 24 26 20 28 -8 4z"/>
<path d="M3420 2186 c0 -2 8 -10 18 -17 15 -13 16 -12 3 4 -13 16 -21 21 -21
13z"/>
<path d="M3900 2100 c0 -5 7 -7 15 -4 8 4 15 8 15 10 0 2 -7 4 -15 4 -8 0 -15
-4 -15 -10z"/>
<path d="M3925 2061 c-3 -6 -11 -9 -16 -6 -15 10 -10 -2 8 -16 9 -8 14 -9 10
-2 -4 6 -1 13 5 16 7 2 10 7 7 11 -4 4 -10 2 -14 -3z"/>
<path d="M3835 2040 c-8 -13 5 -13 25 0 13 8 13 10 -2 10 -9 0 -20 -4 -23 -10z"/>
<path d="M2962 2000 c0 -14 2 -19 5 -12 2 6 2 18 0 25 -3 6 -5 1 -5 -13z"/>
<path d="M3993 2002 c-9 -15 -8 -19 2 -19 8 0 16 9 18 19 3 10 2 18 -2 18 -3
0 -11 -8 -18 -18z"/>
<path d="M2766 1983 c20 -36 22 -37 44 -23 13 8 13 10 -2 10 -10 0 -27 10 -39
23 l-22 22 19 -32z"/>
<path d="M2871 1994 c0 -11 3 -14 6 -6 3 7 2 16 -1 19 -3 4 -6 -2 -5 -13z"/>
<path d="M3251 1970 c0 -8 4 -24 9 -35 l9 -20 0 20 c0 11 -4 27 -9 35 -9 13
-10 13 -9 0z"/>
<path d="M2850 1954 c0 -5 7 -18 15 -28 12 -16 15 -17 15 -4 0 8 -7 21 -15 28
-8 7 -15 9 -15 4z"/>
<path d="M3875 1950 c-3 -5 -1 -10 4 -10 6 0 11 5 11 10 0 6 -2 10 -4 10 -3 0
-8 -4 -11 -10z"/>
<path d="M2670 1931 c0 -9 34 -27 68 -36 12 -4 20 -10 17 -15 -6 -9 54 -20 72
-13 21 8 6 21 -24 21 -15 0 -29 5 -31 11 -2 6 -8 9 -13 5 -5 -3 -9 2 -9 10 0
9 -7 16 -16 16 -9 0 -13 -5 -9 -12 4 -7 1 -6 -7 2 -14 16 -48 23 -48 11z"/>
<path d="M3970 1930 c0 -6 -9 -10 -19 -10 -11 0 -22 -4 -25 -9 -10 -15 22 -33
45 -26 15 5 18 9 9 15 -9 6 -8 10 5 17 15 9 16 11 1 16 -9 4 -16 2 -16 -3z"/>
<path d="M3885 1920 c-3 -5 1 -10 10 -10 9 0 13 5 10 10 -3 6 -8 10 -10 10 -2
0 -7 -4 -10 -10z"/>
<path d="M4018 1923 c6 -2 18 -2 25 0 6 3 1 5 -13 5 -14 0 -19 -2 -12 -5z"/>
<path d="M4060 1926 c0 -2 7 -7 16 -10 8 -3 12 -2 9 4 -6 10 -25 14 -25 6z"/>
<path d="M3190 1895 c0 -14 2 -25 4 -25 2 0 6 11 8 25 3 14 1 25 -3 25 -5 0
-9 -11 -9 -25z"/>
<path d="M4108 1903 c7 -3 16 -2 19 1 4 3 -2 6 -13 5 -11 0 -14 -3 -6 -6z"/>
<path d="M4001 1886 c12 -10 59 -15 59 -6 0 5 -14 10 -32 10 -17 0 -29 -2 -27
-4z"/>
<path d="M4068 1869 c-2 -5 -14 -11 -27 -14 -13 -2 -26 -7 -30 -11 -3 -4 1 -4
9 -2 8 3 23 1 33 -4 13 -6 17 -5 17 7 0 13 7 15 36 9 28 -5 36 -4 32 7 -5 15
-65 22 -70 8z"/>
<path d="M2765 1850 c-16 -7 -17 -9 -3 -9 9 -1 20 4 23 9 7 11 7 11 -20 0z"/>
<path d="M4000 1804 c55 -25 120 -43 125 -34 2 4 -7 18 -20 30 -14 13 -25 19
-25 13 0 -6 6 -14 13 -16 8 -4 9 -6 0 -6 -6 -1 -24 4 -40 11 -15 6 -41 13 -58
15 l-30 3 35 -16z"/>
<path d="M2550 1780 c0 -13 38 -32 44 -21 3 4 -6 13 -19 19 -15 7 -25 8 -25 2z"/>
<path d="M4216 1748 c3 -4 0 -8 -7 -8 -7 0 -10 -2 -7 -5 7 -7 38 5 38 14 0 4
-7 8 -15 8 -8 0 -12 -4 -9 -9z"/>
<path d="M4000 1742 c0 -4 9 -8 20 -9 11 -1 18 2 15 8 -7 11 -35 12 -35 1z"/>
<path d="M4230 1641 c0 -5 9 -7 20 -4 11 3 20 7 20 9 0 2 -9 4 -20 4 -11 0
-20 -4 -20 -9z"/>
<path d="M3995 1560 c-3 -5 1 -10 9 -10 9 0 16 5 16 10 0 6 -4 10 -9 10 -6 0
-13 -4 -16 -10z"/>
<path d="M3596 1533 c-6 -14 -5 -15 5 -6 7 7 10 15 7 18 -3 3 -9 -2 -12 -12z"/>
<path d="M1621 1498 c0 -9 -4 -24 -7 -33 -6 -16 -5 -16 26 0 26 13 38 15 51 7
15 -10 17 -8 16 9 -1 15 -6 19 -19 15 -10 -3 -27 -9 -37 -12 -13 -4 -21 0 -24
13 -4 15 -5 15 -6 1z"/>
<path d="M1755 1490 c3 -5 8 -10 11 -10 2 0 4 5 4 10 0 6 -5 10 -11 10 -5 0
-7 -4 -4 -10z"/>
<path d="M1840 1496 c0 -2 9 -6 20 -9 11 -3 20 -1 20 4 0 5 -9 9 -20 9 -11 0
-20 -2 -20 -4z"/>
<path d="M1920 1484 c0 -9 5 -14 12 -12 18 6 21 28 4 28 -9 0 -16 -7 -16 -16z"/>
<path d="M795 1480 c3 -5 13 -10 21 -10 8 0 14 5 14 10 0 6 -9 10 -21 10 -11
0 -17 -4 -14 -10z"/>
<path d="M1890 1480 c0 -5 5 -10 10 -10 6 0 10 5 10 10 0 6 -4 10 -10 10 -5 0
-10 -4 -10 -10z"/>
<path d="M1008 1473 c7 -3 16 -2 19 1 4 3 -2 6 -13 5 -11 0 -14 -3 -6 -6z"/>
<path d="M535 1450 c-3 -5 -1 -10 4 -10 6 0 11 5 11 10 0 6 -2 10 -4 10 -3 0
-8 -4 -11 -10z"/>
<path d="M4468 1453 c6 -2 18 -2 25 0 6 3 1 5 -13 5 -14 0 -19 -2 -12 -5z"/>
<path d="M330 1429 c0 -5 5 -7 10 -4 6 3 10 8 10 11 0 2 -4 4 -10 4 -5 0 -10
-5 -10 -11z"/>
<path d="M5060 1407 c0 -8 7 -14 15 -14 8 0 15 6 15 14 0 7 -7 13 -15 13 -8 0
-15 -6 -15 -13z"/>
<path d="M6018 1348 c5 -5 16 -8 23 -6 8 3 3 7 -10 11 -17 4 -21 3 -13 -5z"/>
<path d="M6116 1345 c-3 -8 -1 -15 3 -15 5 0 11 7 15 15 3 8 1 15 -3 15 -5 0
-11 -7 -15 -15z"/>
<path d="M5945 1290 c3 -5 11 -10 16 -10 6 0 7 5 4 10 -3 6 -11 10 -16 10 -6
0 -7 -4 -4 -10z"/>
<path d="M6180 1280 c-9 -6 -10 -10 -3 -10 6 0 15 5 18 10 8 12 4 12 -15 0z"/>
<path d="M5958 1263 c7 -3 16 -2 19 1 4 3 -2 6 -13 5 -11 0 -14 -3 -6 -6z"/>
</g>
</svg>
